<?xml version="1.0" encoding="utf-8"?>
<!-- Generator: Adobe Illustrator 17.0.0, SVG Export Plug-In . SVG Version: 6.00 Build 0)  -->
<!DOCTYPE svg PUBLIC "-//W3C//DTD SVG 1.1//EN" "http://www.w3.org/Graphics/SVG/1.1/DTD/svg11.dtd">
<svg version="1.1" id="Layer_1" xmlns="http://www.w3.org/2000/svg" xmlns:xlink="http://www.w3.org/1999/xlink" x="0px" y="0px"
	 width="160px" height="60px" viewBox="0 0 160 60" enable-background="new 0 0 160 60" xml:space="preserve">
<path display="none" fill="#4069B1" d="M73.735,6.53c-0.837-0.913-2.713-0.685-2.713-0.685c-0.66,0-0.686,0.659-0.686,0.659
	c-0.051,0.28-1.167,3.932-1.167,3.932c-0.355,1.319-1.979,5.833-1.979,5.833c-0.583,1.927-2.51,6.29-2.51,6.29
	c-0.989,2.713-4.261,8.089-4.261,8.089c-0.659,0.99-9.536,11.668-9.536,11.668c-2.815,2.94-6.898,5.324-6.898,5.324
	c-3.398,2.105-7.482,2.563-7.482,2.563c-3.069,0.633-6.188-0.153-6.188-0.153c-4.159-1.014-5.046-4.742-5.046-4.742
	c-0.457-1.395-0.356-4.996-0.356-4.996c6.67,0.381,10.297-0.963,10.297-0.963c9.891-2.918,12.351-7.965,12.351-7.965
	c2.942-4.362,0.559-8.547,0.559-8.547c-2.46-4.261-8.598-4.185-8.598-4.185c-7.533-0.076-11.869,3.576-11.869,3.576
	c-7.863,5.377-9.334,13.875-9.334,13.875c-2.562-0.053-7.38-1.649-7.38-1.649c-2.485-0.735-7.38-3.146-7.38-3.146
	c-0.508-0.254-1.598-0.824-1.598-0.824c-0.609,0.089-0.431,1.254-0.431,1.254c0.357,0.481,4.691,2.842,4.691,2.842
	c0.989,0.583,5.25,2.408,5.25,2.408c2.105,1.04,6.416,1.774,6.416,1.774c-0.228,1.396-0.051,5.303-0.051,5.303
	c0.33,3.523,2.537,6.492,2.537,6.492c2.815,3.397,6.772,4.233,6.772,4.233c2.08,0.608,6.442,0.203,6.442,0.203
	c4.438-0.405,8.192-2.155,8.192-2.155c3.373-1.142,8.42-4.92,8.42-4.92c1.42-0.838,7.228-6.671,7.228-6.671
	c0.964-0.964,3.247-3.956,3.247-3.956c2.384-3.068,4.336-6.645,4.336-6.645c0.837-1.167,2.942-6.037,2.942-6.037
	c0.304-0.862,2.537-6.696,2.537-6.696c0.202-0.507,1.724-5.275,1.724-5.275c0.254-0.964,1.649-5.656,1.649-5.656
	C73.963,6.631,73.735,6.53,73.735,6.53 M27.738,30.485c0,0,2.119-3.699,3.418-4.772c0,0,2.571-2.599,4.633-3.305
	c0,0,1.723-0.622,3.983-0.452c0,0,1.78,0.113,2.655,1.977c0,0,0.65,1.582,0,3.927c0,0-0.649,2.768-3.276,4.858
	c0,0-2.479,2.091-5.096,2.994c0,0-1.91,0.733-4.339,1.187c0,0-2.938,0.365-4.321,0.338C25.394,37.236,26.269,32.631,27.738,30.485"
	/>
<path display="none" fill="#061F20" d="M48.64,51.061h1.926c1.012,0,1.518-0.416,1.518-1.252V36.033
	c0-1.002-0.578-1.504-1.737-1.504H48.64V32.15h11.38v2.379h-1.487c-1.305,0-1.957,0.502-1.957,1.504v13.273
	c0,1.17,0.542,1.754,1.627,1.754h1.816v2.377H48.64V51.061z"/>
<path display="none" fill="none" stroke="#FFFFFF" stroke-width="3" stroke-linejoin="round" stroke-miterlimit="10" d="
	M48.64,51.061h1.926c1.012,0,1.518-0.416,1.518-1.252V36.033c0-1.002-0.578-1.504-1.737-1.504H48.64V32.15h11.38v2.379h-1.487
	c-1.305,0-1.957,0.502-1.957,1.504v13.273c0,1.17,0.542,1.754,1.627,1.754h1.816v2.377H48.64V51.061z"/>
<path display="none" fill="#061F20" d="M61.163,51.326h1.768c0.909,0,1.362-0.417,1.362-1.252v-7.795c0-0.721-0.146-1.19-0.438-1.41
	c-0.292-0.229-0.804-0.344-1.534-0.344h-1.158v-2.112h6.918v2.785c0.866-1.179,1.743-2.015,2.63-2.505
	c0.886-0.5,1.91-0.75,3.067-0.75c3.048,0,4.571,1.746,4.571,5.242v6.638c0,0.554,0.125,0.944,0.375,1.174
	c0.26,0.22,0.752,0.329,1.471,0.329h1.222v2.113h-9.346v-2.113h0.783c1.137,0,1.707-0.417,1.707-1.252v-6.652
	c0-1.973-0.945-2.959-2.834-2.959c-0.867,0-1.69,0.37-2.473,1.111c-0.783,0.742-1.174,1.611-1.174,2.613v5.636v0.108
	c0,0.93,0.428,1.395,1.284,1.395h1.252v2.113h-9.455v-2.113H61.163z"/>
<path display="none" fill="none" stroke="#FFFFFF" stroke-width="3" stroke-linejoin="round" stroke-miterlimit="10" d="
	M61.163,51.326h1.768c0.909,0,1.362-0.417,1.362-1.252v-7.795c0-0.721-0.146-1.19-0.438-1.41c-0.292-0.229-0.804-0.344-1.534-0.344
	h-1.158v-2.112h6.918v2.785c0.866-1.179,1.743-2.015,2.63-2.505c0.886-0.5,1.91-0.75,3.067-0.75c3.048,0,4.571,1.746,4.571,5.242
	v6.638c0,0.554,0.125,0.944,0.375,1.174c0.26,0.22,0.752,0.329,1.471,0.329h1.222v2.113h-9.346v-2.113h0.783
	c1.137,0,1.707-0.417,1.707-1.252v-6.652c0-1.973-0.945-2.959-2.834-2.959c-0.867,0-1.69,0.37-2.473,1.111
	c-0.783,0.742-1.174,1.611-1.174,2.613v5.636v0.108c0,0.93,0.428,1.395,1.284,1.395h1.252v2.113h-9.455v-2.113H61.163z"/>
<path display="none" fill="#061F20" d="M81.418,38.506c2.629-0.188,4.132-2.223,4.508-6.104h2.004v6.012h4.258v2.113H87.93v9.298
	c0,0.428,0.104,0.739,0.313,0.938c0.209,0.198,0.521,0.297,0.939,0.297c0.918,0,1.377-0.621,1.377-1.862v-2.804h2.129v2.739
	c0,1.505-0.375,2.679-1.127,3.523c-0.74,0.834-1.836,1.252-3.287,1.252c-2.756,0-4.133-1.185-4.133-3.554v-9.83h-2.724
	L81.418,38.506L81.418,38.506z"/>
<path display="none" fill="none" stroke="#FFFFFF" stroke-width="3" stroke-linejoin="round" stroke-miterlimit="10" d="
	M81.418,38.506c2.629-0.188,4.132-2.223,4.508-6.104h2.004v6.012h4.258v2.113H87.93v9.298c0,0.428,0.104,0.739,0.313,0.938
	c0.209,0.198,0.521,0.297,0.939,0.297c0.918,0,1.377-0.621,1.377-1.862v-2.804h2.129v2.739c0,1.505-0.375,2.679-1.127,3.523
	c-0.74,0.834-1.836,1.252-3.287,1.252c-2.756,0-4.133-1.185-4.133-3.554v-9.83h-2.724L81.418,38.506L81.418,38.506z"/>
<path display="none" fill="#061F20" d="M98.436,46.316c0,3.455,1.217,5.183,3.646,5.183c2.141,0,3.418-1.117,3.836-3.351h2.661
	c-0.429,3.841-2.708,5.761-6.841,5.761c-5.082,0-7.623-2.661-7.623-7.983c0-2.306,0.679-4.211,2.035-5.714
	c1.355-1.513,3.166-2.271,5.432-2.271c2.057,0,3.757,0.722,5.104,2.16c1.346,1.432,2.02,3.24,2.02,5.433v0.407
	c0,0.188-0.021,0.313-0.063,0.375H98.436z M98.436,44.204h5.949c0-2.671-0.943-4.009-2.834-4.009
	C99.62,40.195,98.582,41.533,98.436,44.204"/>
<path display="none" fill="none" stroke="#FFFFFF" stroke-width="3" stroke-linejoin="round" stroke-miterlimit="10" d="
	M98.436,46.316c0,3.455,1.217,5.183,3.646,5.183c2.141,0,3.418-1.117,3.836-3.351h2.661c-0.429,3.841-2.708,5.761-6.841,5.761
	c-5.082,0-7.623-2.661-7.623-7.983c0-2.306,0.679-4.211,2.035-5.714c1.355-1.513,3.166-2.271,5.432-2.271
	c2.057,0,3.757,0.722,5.104,2.16c1.346,1.432,2.02,3.24,2.02,5.433v0.407c0,0.188-0.021,0.313-0.063,0.375H98.436z M98.436,44.204
	h5.949c0-2.671-0.943-4.009-2.834-4.009C99.62,40.195,98.582,41.533,98.436,44.204z"/>
<path display="none" fill="#061F20" d="M110.199,51.326h1.769c0.866,0,1.3-0.387,1.3-1.158v-0.094v-8.047v-0.202
	c0-0.866-0.443-1.3-1.332-1.3H110.2v-2.112h6.794v2.504c0.73-1.063,1.449-1.825,2.158-2.285c0.722-0.459,1.421-0.688,2.099-0.688
	c1.128,0,2.046,0.318,2.756,0.955c0.709,0.637,1.063,1.48,1.063,2.535c0,0.846-0.229,1.52-0.688,2.021
	c-0.448,0.501-1.026,0.751-1.737,0.751c-0.729,0-1.299-0.188-1.705-0.563c-0.397-0.387-0.596-0.871-0.596-1.455
	c0-0.586,0.178-1.055,0.532-1.41c0.354-0.364,0.888-0.559,1.597-0.579c-0.271-0.313-0.709-0.47-1.314-0.47
	c-1.283,0-2.291,0.513-3.021,1.533c-0.72,1.014-1.08,2.129-1.08,3.35v5.214v0.108c0,0.931,0.428,1.395,1.284,1.395h2.035v2.113
	h-10.175v-2.115L110.199,51.326L110.199,51.326z"/>
<path display="none" fill="none" stroke="#FFFFFF" stroke-width="3" stroke-linejoin="round" stroke-miterlimit="10" d="
	M110.199,51.326h1.769c0.866,0,1.3-0.387,1.3-1.158v-0.094v-8.047v-0.202c0-0.866-0.443-1.3-1.332-1.3H110.2v-2.112h6.794v2.504
	c0.73-1.063,1.449-1.825,2.158-2.285c0.722-0.459,1.421-0.688,2.099-0.688c1.128,0,2.046,0.318,2.756,0.955
	c0.709,0.637,1.063,1.48,1.063,2.535c0,0.846-0.229,1.52-0.688,2.021c-0.448,0.501-1.026,0.751-1.737,0.751
	c-0.729,0-1.299-0.188-1.705-0.563c-0.397-0.387-0.596-0.871-0.596-1.455c0-0.586,0.178-1.055,0.532-1.41
	c0.354-0.364,0.888-0.559,1.597-0.579c-0.271-0.313-0.709-0.47-1.314-0.47c-1.283,0-2.291,0.513-3.021,1.533
	c-0.72,1.014-1.08,2.129-1.08,3.35v5.214v0.108c0,0.931,0.428,1.395,1.284,1.395h2.035v2.113h-10.175v-2.115L110.199,51.326
	L110.199,51.326z"/>
<path display="none" fill="#061F20" d="M126.268,51.326h1.77c0.906,0,1.361-0.417,1.361-1.252v-7.795c0-0.721-0.146-1.19-0.438-1.41
	c-0.292-0.229-0.804-0.344-1.534-0.344h-1.158v-2.112h6.92v2.785c0.865-1.179,1.742-2.015,2.629-2.505
	c0.889-0.5,1.91-0.75,3.07-0.75c3.045,0,4.568,1.746,4.568,5.242v6.638c0,0.554,0.125,0.944,0.375,1.174
	c0.262,0.22,0.752,0.329,1.473,0.329h1.221v2.113h-9.346v-2.113h0.782c1.138,0,1.708-0.417,1.708-1.252v-6.652
	c0-1.973-0.945-2.959-2.835-2.959c-0.867,0-1.688,0.37-2.474,1.111c-0.781,0.742-1.172,1.611-1.172,2.613v5.636v0.108
	c0,0.93,0.426,1.395,1.283,1.395h1.252v2.113h-9.455L126.268,51.326L126.268,51.326z"/>
<path display="none" fill="none" stroke="#FFFFFF" stroke-width="3" stroke-linejoin="round" stroke-miterlimit="10" d="
	M126.268,51.326h1.77c0.906,0,1.361-0.417,1.361-1.252v-7.795c0-0.721-0.146-1.19-0.438-1.41c-0.292-0.229-0.804-0.344-1.534-0.344
	h-1.158v-2.112h6.92v2.785c0.865-1.179,1.742-2.015,2.629-2.505c0.889-0.5,1.91-0.75,3.07-0.75c3.045,0,4.568,1.746,4.568,5.242
	v6.638c0,0.554,0.125,0.944,0.375,1.174c0.262,0.22,0.752,0.329,1.473,0.329h1.221v2.113h-9.346v-2.113h0.782
	c1.138,0,1.708-0.417,1.708-1.252v-6.652c0-1.973-0.945-2.959-2.835-2.959c-0.867,0-1.688,0.37-2.474,1.111
	c-0.781,0.742-1.172,1.611-1.172,2.613v5.636v0.108c0,0.93,0.426,1.395,1.283,1.395h1.252v2.113h-9.455L126.268,51.326
	L126.268,51.326z"/>
<path display="none" fill="#061F20" d="M149.965,51.529c0-0.656,0.229-1.215,0.688-1.674s1.022-0.689,1.69-0.689
	c0.7,0,1.269,0.24,1.707,0.721c0.438,0.469,0.656,1.022,0.656,1.659c0,0.688-0.233,1.257-0.704,1.706
	c-0.459,0.438-1.018,0.656-1.675,0.656c-0.667,0-1.229-0.225-1.69-0.672C150.189,52.787,149.965,52.219,149.965,51.529"/>
<path display="none" fill="none" stroke="#FFFFFF" stroke-width="3" stroke-linejoin="round" stroke-miterlimit="10" d="
	M149.965,51.529c0-0.656,0.229-1.215,0.688-1.674s1.022-0.689,1.69-0.689c0.7,0,1.269,0.24,1.707,0.721
	c0.438,0.469,0.656,1.022,0.656,1.659c0,0.688-0.233,1.257-0.704,1.706c-0.459,0.438-1.018,0.656-1.675,0.656
	c-0.667,0-1.229-0.225-1.69-0.672C150.189,52.787,149.965,52.219,149.965,51.529z"/>
<path display="none" fill="#061F20" d="M48.64,51.061h1.926c1.012,0,1.518-0.416,1.518-1.252V36.033
	c0-1.002-0.578-1.504-1.737-1.504H48.64V32.15h11.38v2.379h-1.487c-1.305,0-1.957,0.502-1.957,1.504v13.273
	c0,1.17,0.542,1.754,1.627,1.754h1.816v2.377H48.64V51.061z"/>
<path display="none" fill="#061F20" d="M61.163,51.326h1.768c0.909,0,1.362-0.417,1.362-1.252v-7.795c0-0.721-0.146-1.19-0.438-1.41
	c-0.292-0.229-0.804-0.344-1.534-0.344h-1.158v-2.112h6.918v2.785c0.866-1.179,1.743-2.015,2.63-2.505
	c0.886-0.5,1.91-0.75,3.067-0.75c3.048,0,4.571,1.746,4.571,5.242v6.638c0,0.554,0.125,0.944,0.375,1.174
	c0.26,0.22,0.752,0.329,1.471,0.329h1.222v2.113h-9.346v-2.113h0.783c1.137,0,1.707-0.417,1.707-1.252v-6.652
	c0-1.973-0.945-2.959-2.834-2.959c-0.867,0-1.69,0.37-2.473,1.111c-0.783,0.742-1.174,1.611-1.174,2.613v5.636v0.108
	c0,0.93,0.428,1.395,1.284,1.395h1.252v2.113h-9.455v-2.113H61.163z"/>
<path display="none" fill="#061F20" d="M81.418,38.506c2.629-0.188,4.132-2.223,4.508-6.104h2.004v6.012h4.258v2.113H87.93v9.298
	c0,0.428,0.104,0.739,0.313,0.938c0.209,0.198,0.521,0.297,0.939,0.297c0.918,0,1.377-0.621,1.377-1.862v-2.804h2.129v2.739
	c0,1.505-0.375,2.679-1.127,3.523c-0.74,0.834-1.836,1.252-3.287,1.252c-2.756,0-4.133-1.185-4.133-3.554v-9.83h-2.724
	L81.418,38.506L81.418,38.506z"/>
<path display="none" fill="#061F20" d="M98.436,46.316c0,3.455,1.217,5.183,3.646,5.183c2.141,0,3.418-1.117,3.836-3.351h2.661
	c-0.429,3.841-2.708,5.761-6.841,5.761c-5.082,0-7.623-2.661-7.623-7.983c0-2.306,0.679-4.211,2.035-5.714
	c1.355-1.513,3.166-2.271,5.432-2.271c2.057,0,3.757,0.722,5.104,2.16c1.346,1.432,2.02,3.24,2.02,5.433v0.407
	c0,0.188-0.021,0.313-0.063,0.375H98.436z M98.436,44.204h5.949c0-2.671-0.943-4.009-2.834-4.009
	C99.62,40.195,98.582,41.533,98.436,44.204"/>
<path display="none" fill="#061F20" d="M110.199,51.326h1.769c0.866,0,1.3-0.387,1.3-1.158v-0.094v-8.047v-0.202
	c0-0.866-0.443-1.3-1.332-1.3H110.2v-2.112h6.794v2.504c0.73-1.063,1.449-1.825,2.158-2.285c0.722-0.459,1.421-0.688,2.099-0.688
	c1.128,0,2.046,0.318,2.756,0.955c0.709,0.637,1.063,1.48,1.063,2.535c0,0.846-0.229,1.52-0.688,2.021
	c-0.448,0.501-1.026,0.751-1.737,0.751c-0.729,0-1.299-0.188-1.705-0.563c-0.397-0.387-0.596-0.871-0.596-1.455
	c0-0.586,0.178-1.055,0.532-1.41c0.354-0.364,0.888-0.559,1.597-0.579c-0.271-0.313-0.709-0.47-1.314-0.47
	c-1.283,0-2.291,0.513-3.021,1.533c-0.72,1.014-1.08,2.129-1.08,3.35v5.214v0.108c0,0.931,0.428,1.395,1.284,1.395h2.035v2.113
	h-10.175v-2.115L110.199,51.326L110.199,51.326z"/>
<path display="none" fill="#061F20" d="M126.268,51.326h1.77c0.906,0,1.361-0.417,1.361-1.252v-7.795c0-0.721-0.146-1.19-0.438-1.41
	c-0.292-0.229-0.804-0.344-1.534-0.344h-1.158v-2.112h6.92v2.785c0.865-1.179,1.742-2.015,2.629-2.505
	c0.889-0.5,1.91-0.75,3.07-0.75c3.045,0,4.568,1.746,4.568,5.242v6.638c0,0.554,0.125,0.944,0.375,1.174
	c0.262,0.22,0.752,0.329,1.473,0.329h1.221v2.113h-9.346v-2.113h0.782c1.138,0,1.708-0.417,1.708-1.252v-6.652
	c0-1.973-0.945-2.959-2.835-2.959c-0.867,0-1.688,0.37-2.474,1.111c-0.781,0.742-1.172,1.611-1.172,2.613v5.636v0.108
	c0,0.93,0.426,1.395,1.283,1.395h1.252v2.113h-9.455L126.268,51.326L126.268,51.326z"/>
<path display="none" fill="#061F20" d="M149.965,51.529c0-0.656,0.229-1.215,0.688-1.674s1.022-0.689,1.69-0.689
	c0.7,0,1.269,0.24,1.707,0.721c0.438,0.469,0.656,1.022,0.656,1.659c0,0.688-0.233,1.257-0.704,1.706
	c-0.459,0.438-1.018,0.656-1.675,0.656c-0.667,0-1.229-0.225-1.69-0.672C150.189,52.787,149.965,52.219,149.965,51.529"/>
<g>
	<g>
		<path fill="#484C55" d="M137.844,52.762c0,0.583-0.475,1.058-1.059,1.058h-11.492V40.056h11.261c0.584,0,1.058,0.475,1.058,1.059
			c0,0.583-0.474,1.058-1.058,1.058h-8.76v3.486h6.054c0.583,0,1.058,0.475,1.058,1.059c0,0.583-0.474,1.058-1.058,1.058h-6.054
			v3.929h8.991C137.369,51.703,137.844,52.178,137.844,52.762L137.844,52.762z M110.143,46.275v-4.179h5.392
			c2.26,0,3.486,0.331,3.486,2.08c0,1.765-1.225,2.099-3.486,2.099H110.143L110.143,46.275z M117.723,48.122
			c1.89-0.105,3.797-1.385,3.797-4.004c0-2.885-1.617-4.061-5.582-4.061h-8.297V53.82h2.501v-5.506h4.507l0.035,0.047l4.028,5.459
			h3.076l-4.283-5.686L117.723,48.122L117.723,48.122z M103.404,41.307v6.623c0,4.138-2.461,6.237-7.314,6.237
			c-4.854,0-7.316-2.098-7.316-6.237v-6.623c0-0.69,0.562-1.251,1.25-1.251c0.69,0,1.251,0.561,1.251,1.251v6.43
			c0,2.008,0.548,4.313,4.814,4.313c4.265,0,4.813-2.304,4.813-4.313v-6.43c0-0.69,0.561-1.251,1.25-1.251
			C102.842,40.056,103.404,40.617,103.404,41.307L103.404,41.307z M85.876,41.115c0,0.583-0.474,1.058-1.058,1.058H79.62V53.82
			h-2.501V42.173h-5.199c-0.583,0-1.058-0.475-1.058-1.058c0-0.584,0.475-1.059,1.058-1.059h12.899
			C85.402,40.056,85.876,40.531,85.876,41.115L85.876,41.115z M60.147,48.488l3.109-6.627l3.109,6.627H60.147L60.147,48.488z
			 M61.769,40.056L54.992,53.82h2.645l1.483-3.215h8.215l0.032,0.068l1.431,3.147h2.629l-6.683-13.764H61.769L61.769,40.056z
			 M54.894,41.777L48.997,53.82h-2.704l-5.816-12.046c-0.18-0.373-0.156-0.805,0.064-1.157c0.221-0.351,0.599-0.561,1.014-0.561
			c0.461,0,0.886,0.27,1.083,0.688l4.901,10.411l0.104,0.221l5.1-10.642c0.198-0.412,0.621-0.678,1.078-0.678
			c0.415,0,0.794,0.211,1.013,0.562C55.055,40.97,55.077,41.404,54.894,41.777L54.894,41.777z M37.375,52.762
			c0,0.583-0.475,1.058-1.059,1.058H24.824V40.056h11.261c0.584,0,1.059,0.475,1.059,1.059c0,0.583-0.475,1.058-1.059,1.058h-8.76
			v3.486h6.59c0.583,0,1.058,0.475,1.058,1.059c0,0.583-0.475,1.058-1.058,1.058h-6.59v3.929h8.991
			C36.9,51.703,37.375,52.178,37.375,52.762L37.375,52.762z M9.674,46.275v-4.179h5.391c2.261,0,3.486,0.331,3.486,2.08
			c0,1.765-1.225,2.099-3.486,2.099H9.674L9.674,46.275z M17.254,48.122c1.89-0.105,3.798-1.385,3.798-4.004
			c0-2.885-1.617-4.061-5.582-4.061H7.173V53.82h2.501v-5.506h4.507l0.034,0.047l4.028,5.459h3.076l-4.283-5.686L17.254,48.122
			L17.254,48.122z"/>
		<path fill="#F26B26" d="M154.398,16.14c-0.503-0.416-1.248-0.345-1.664,0.158l-12.351,16.064
			c-0.416,0.503-0.345,1.248,0.158,1.664c0.503,0.416,1.248,0.345,1.664-0.158l12.351-16.064
			C154.972,17.3,154.901,16.555,154.398,16.14L154.398,16.14z M142.705,11.783c-0.546-0.358-1.279-0.205-1.636,0.341l-9.335,15.492
			c-0.358,0.546-0.205,1.278,0.34,1.636c0.546,0.358,1.279,0.205,1.637-0.341l9.335-15.492
			C143.403,12.874,143.25,12.141,142.705,11.783L142.705,11.783z M130.829,9.044c-0.583-0.295-1.294-0.062-1.588,0.52l-6.661,14.431
			c-0.295,0.582-0.062,1.293,0.52,1.588c0.583,0.295,1.294,0.062,1.588-0.521l6.661-14.431
			C131.643,10.05,131.411,9.339,130.829,9.044L130.829,9.044z M118.938,7.904c-0.614-0.222-1.291,0.096-1.514,0.709l-4.193,12.998
			c-0.222,0.614,0.096,1.291,0.709,1.513c0.614,0.222,1.291-0.096,1.514-0.709l4.193-12.998
			C119.869,8.804,119.551,8.126,118.938,7.904L118.938,7.904z M107.221,8.429c-0.637-0.144-1.269,0.256-1.413,0.893l-2.059,11.109
			c-0.143,0.637,0.256,1.269,0.893,1.413c0.637,0.144,1.27-0.256,1.413-0.893l2.059-11.109
			C108.257,9.205,107.858,8.572,107.221,8.429L107.221,8.429z M95.781,10.387c-0.651-0.058-1.224,0.422-1.282,1.073l-0.444,9.007
			c-0.057,0.65,0.423,1.224,1.073,1.282c0.65,0.058,1.224-0.423,1.281-1.073l0.444-9.006C96.911,11.018,96.431,10.444,95.781,10.387
			L95.781,10.387z M84.97,13.705L84.97,13.705c-0.652,0.038-1.149,0.597-1.111,1.248l0.665,6.719
			c0.038,0.652,0.597,1.149,1.249,1.111c0.651-0.038,1.149-0.597,1.111-1.248l-0.665-6.719C86.18,14.165,85.621,13.668,84.97,13.705
			L84.97,13.705z M76.106,19.343c-0.161-0.633-0.804-1.015-1.436-0.854c-0.633,0.161-1.016,0.804-0.855,1.436l1.266,4.22
			c0.161,0.633,0.804,1.015,1.436,0.854c0.633-0.161,1.015-0.804,0.854-1.436L76.106,19.343L76.106,19.343z M66.769,24.893
			c-0.329-0.564-1.053-0.754-1.616-0.424c-0.564,0.329-0.754,1.053-0.425,1.616l1.214,1.892c0.329,0.564,1.053,0.754,1.616,0.424
			c0.564-0.329,0.754-1.053,0.424-1.616L66.769,24.893L66.769,24.893z M59.201,33.15c-0.045,0.651-0.609,1.143-1.26,1.098
			l-0.078-0.005c-0.651-0.045-1.143-0.609-1.098-1.26c0.045-0.651,0.609-1.143,1.26-1.098l0.078,0.005
			C58.754,31.935,59.246,32.499,59.201,33.15L59.201,33.15z"/>
	</g>
</g>
</svg>
